<svg xmlns="http://www.w3.org/2000/svg" width="112" height="56" viewBox="0 0 112 56"><defs><clipPath id="a"><path d="M0 707.324V0h1417.32v707.324H0z"/></clipPath></defs><g><g><g><g clip-path="url(#a)" transform="matrix(.079 0 0 -.079 0 55.894)"><path d="M22.09 400.234v-84.296h1373.15v84.296H22.09" fill="#fff"/><path d="M0 707.324V0h1233.43c101.39 0 183.89 81.934 183.89 182.637v524.687H0" fill="#fff"/><path d="M22.09 685.242V364.727h1373.15v320.515H22.09" fill="#003468"/><path d="M22.09 22.117h1211.34c90.01 0 161.81 73.906 161.81 160.5v160H22.09v-320.5" fill="#ff7500"/><path d="M147.305 90.04h-2.325c-27.87 0-51.878 19.362-51.878 51.632 0 19.86 29.945 19.86 29.945 0 0-13.938 9.03-21.945 21.933-21.945h2.325c12.906 0 22.715 6.707 22.715 19.617 0 32.265-75.11 35.35-75.11 82.59v5.418c0 27.617 27.617 44.14 50.07 44.14h2.325c26.582 0 50.336-16.523 50.336-41.29 0-19.108-29.687-19.628-29.687-.776 0 6.707-8.258 12.38-20.648 12.38h-2.325c-11.35 0-20.136-6.193-20.136-16.005v-3.866c0-20.38 75.113-29.422 75.113-82.59 0-29.434-22.965-49.305-52.652-49.305" fill="#003468"/><path d="M277.113 90.04H274.8c-28.394 0-51.616 21.94-51.616 50.597v80.523c0 28.652 23.222 50.332 51.617 50.332h2.313c26.07 0 47.754-17.812 51.11-43.105.26-.782.26-1.543.26-2.586 0-9.288-7.74-14.452-15.225-14.452-6.703 0-13.164 4.13-14.45 12.91-1.558 10.586-10.59 17.547-21.695 17.547H274.8c-12.136 0-21.94-8.778-21.94-20.645v-80.523c0-12.13 10.062-20.91 21.94-20.91h2.313c11.106 0 20.137 6.972 21.696 17.558 1.284 8.77 7.99 12.9 14.448 12.9 7.75 0 15.226-5.165 15.226-14.455v-2.832c-3.875-24.785-25.3-42.86-51.37-42.86" fill="#003468"/><path d="M425.523 220.906c0 12.12-9.546 20.9-21.68 20.9h-2.323c-12.13 0-21.684-9.025-21.684-20.9v-80.02c0-12.124 9.812-21.16 21.684-21.16h2.324c12.133 0 21.68 9.036 21.68 20.91v80.27zM403.843 90.04h-2.323c-28.39 0-51.618 22.206-51.618 50.597v80.27c0 28.644 23.227 50.585 51.618 50.585h2.324c28.644 0 51.61-21.94 51.61-50.586v-80.02c0-28.64-22.966-50.847-51.61-50.847" fill="#003468"/><path d="M540.113 90.04h-2.316c-28.387 0-51.62 23.23-51.62 51.632v114.84c0 10.082 7.483 14.98 14.968 14.98 7.484 0 14.968-4.898 14.968-14.98v-114.84c0-11.875 9.81-21.945 21.684-21.945h2.316c12.137 0 21.942 9.804 21.942 21.945v114.84c0 10.082 7.476 14.98 14.972 14.98 7.49 0 14.965-4.898 14.965-14.98v-114.84c0-28.402-23.22-51.633-51.88-51.633" fill="#003468"/><path d="M697.812 240.262h-20.644v-135.25c0-10.063-7.496-14.973-14.984-14.973-7.477 0-14.96 4.91-14.96 14.972v135.25H626.57c-9.8 0-14.965 7.48-14.965 14.96 0 7.24 5.165 14.727 14.965 14.727h71.242c10.07 0 14.965-7.49 14.965-14.727 0-7.48-4.894-14.96-14.965-14.96" fill="#003468"/><path d="M837.188 91.594h-67.11c-9.55 0-15.234 9.03-15.234 17.808 0 3.36.527 6.457 2.324 9.29l58.594 94.46c3.086 5.176 3.086 8.008 3.086 11.875v2.07c0 7.747-6.7 14.708-15.47 14.708h-.78c-8.516 0-14.96-6.707-14.96-14.707v-2.84c0-9.805-7.5-14.7-14.982-14.7-7.48 0-14.968 4.895-14.968 14.7v3.88c0 25.026 20.378 43.354 44.91 43.354h.78c24.26 0 45.423-18.074 45.423-43.355l-.265-2.844c0-9.816-3.613-17.813-9.043-26.848l-47.226-77.168h44.922c10.058 0 14.96-7.488 14.96-14.715 0-7.48-4.902-14.968-14.96-14.968" fill="#003468"/><path d="M955.117 126.953h-5.676v-21.94c0-10.064-7.487-14.974-14.967-14.974s-14.96 4.91-14.96 14.972v21.94h-40.536c-10.325 0-16.77 5.677-16.77 15.75 0 2.57.52 5.93 1.543 8.255l48.262 111.504c2.843 6.446 8.008 9.032 13.164 9.032 7.746 0 15.488-5.937 15.488-14.453 0-2.07-.254-4.118-1.29-6.454l-42.597-93.945h22.735v14.97c0 9.816 7.48 14.96 14.96 14.96s14.97-4.898 14.97-14.96v-14.97h5.675c10.06 0 14.973-7.238 14.973-14.714 0-7.485-4.914-14.973-14.973-14.973" fill="#003468"/><path d="M115.36 431.62c-7.485 0-14.97 4.892-14.97 14.982V598.09c0 10.074 7.485 14.98 14.97 14.98 7.488 0 14.968-4.906 14.968-14.98V446.602c0-10.09-7.48-14.98-14.97-14.98" fill="#fff"/><path d="M290.496 431.62c-7.484 0-14.965 4.892-14.965 14.982v94.45l-21.94-50.575c-3.613-8.524-10.324-10.08-15.23-10.08-4.903 0-11.614 1.556-15.223 10.08l-21.942 50.574v-94.448c0-10.09-7.484-14.98-14.968-14.98-7.48 0-14.965 4.89-14.965 14.98V598.09c0 8.008 6.957 14.98 14.965 14.98h3.867c9.55 0 13.168-6.195 16.27-12.914l31.995-72.265 32.01 72.266c2.833 6.72 6.708 12.914 16.255 12.914h3.87c8.005 0 14.978-6.972 14.978-14.98V446.602c0-10.09-7.493-14.98-14.977-14.98" fill="#fff"/><path d="M465.305 431.62c-7.493 0-14.973 4.892-14.973 14.982v94.45l-21.937-50.575c-3.614-8.524-10.325-10.08-15.23-10.08-4.903 0-11.61 1.556-15.23 10.08l-21.94 50.574v-94.448c0-10.09-7.48-14.98-14.964-14.98-7.48 0-14.968 4.89-14.968 14.98V598.09c0 8.008 6.973 14.98 14.97 14.98h3.866c9.55 0 13.168-6.195 16.262-12.914l32.004-72.265 32.012 72.266c2.836 6.72 6.703 12.914 16.254 12.914h3.875c8 0 14.968-6.972 14.968-14.98V446.602c0-10.09-7.48-14.98-14.968-14.98" fill="#fff"/><path d="M592.945 562.48c0 12.133-9.547 20.903-21.683 20.903h-2.317c-12.136 0-21.683-9.03-21.683-20.903v-80.01c0-12.138 9.808-21.17 21.683-21.17h2.317c12.136 0 21.683 9.032 21.683 20.92v80.26zm-21.683-130.86h-2.317c-28.394 0-51.62 22.196-51.62 50.6v80.26c0 28.653 23.226 50.59 51.62 50.59h2.317c28.66 0 51.62-21.937 51.62-50.59v-80.01c0-28.654-22.96-50.85-51.62-50.85" fill="#fff"/><path d="M734.316 486.855c0 12.903-10.586 23.227-21.945 23.227h-22.198v-47.23h22.2c12.12 0 21.944 9.804 21.944 21.933v2.07zM712.37 581.84h-22.198v-42.074h22.2c11.105 0 19.874 9.035 19.874 22.203 0 12.643-8.262 19.87-19.875 19.87zm-.257-148.676h-36.91c-7.996 0-14.97 6.973-14.97 14.973v148.418c0 7.996 6.974 14.965 14.97 14.965h36.91c28.903 0 50.075-21.422 50.075-49.55 0-17.56-7.227-26.6-16.512-36.4 10.308-10.074 18.562-21.937 18.562-38.715v-2.07c0-28.644-23.476-51.62-52.125-51.62" fill="#fff"/><path d="M809.797 431.62c-7.492 0-14.973 4.892-14.973 14.982V598.09c0 10.074 7.48 14.98 14.973 14.98 7.47 0 14.97-4.906 14.97-14.98V446.602c0-10.09-7.5-14.98-14.97-14.98" fill="#fff"/><path d="M945.625 432.93h-65.813c-7.996 0-14.968 6.972-14.968 14.968v149.957c0 10.075 7.492 14.98 14.968 14.98 7.493 0 14.973-4.905 14.973-14.98V462.617h50.84c10.078 0 14.98-7.48 14.98-14.972 0-7.223-4.902-14.715-14.98-14.715" fill="#fff"/><path d="M990.566 431.62c-7.492 0-14.98 4.892-14.98 14.982V598.09c0 10.074 7.488 14.98 14.98 14.98 7.48 0 14.964-4.906 14.964-14.98V446.602c0-10.09-7.483-14.98-14.964-14.98" fill="#fff"/><path d="M1135.2 433.008h-75.63c-8.01 0-14.97 6.972-14.97 14.97V596.39c0 8 6.96 14.965 14.97 14.965h75.63c10.05 0 14.96-7.476 14.96-14.714 0-7.48-4.91-14.964-14.96-14.964h-60.67v-42.07h40.27c10.06 0 14.98-7.49 14.98-14.97 0-7.234-4.92-14.714-14.98-14.714h-40.27v-47.238h60.67c10.05 0 14.96-7.47 14.96-14.96 0-7.236-4.91-14.716-14.96-14.716" fill="#fff"/><path d="M1270.02 431.62h-2.83c-9.55 0-13.43 6.192-16.26 12.9l-41.55 96.53v-94.448c0-10.09-7.5-14.98-14.99-14.98-7.48 0-14.96 4.89-14.96 14.98V598.09c0 8.008 6.98 14.98 14.96 14.98h3.36c9.55 0 13.18-6.195 16.26-12.914l41.05-92.922v91.12c0 9.81 7.49 14.716 14.96 14.716 7.49 0 14.97-4.906 14.97-14.715V446.602c0-8.016-6.96-14.98-14.97-14.98" fill="#fff"/></g></g></g></g></svg>